# xmcd CD database file
#
# Track frame offsets:
#	150
#	11867
#	48252
#	64945
#	96220
#	124617
#	151985
#	184125
#	224517
#	252272
#
# Disc length: 3821 seconds
#
# Revision: 0
# Processed by: cddbd v1.5PL3 Copyright (c) Steve Scherf et al.
# Submitted via: CDex 1.51
#
DISCID=8b0eeb0a
DTITLE=宴 - あめつちほしそら - 天地星空 -
DYEAR=2003
DGENRE=Jazz
TTITLE0=正樹
TTITLE1=18 Doors and 14 Knobs
TTITLE2=春のマーチ
TTITLE3=ヤンバルクイナのかくれんぼ
TTITLE4=さくらんぼ色
TTITLE5=Aqua Regia
TTITLE6=Himalayan's Eye
TTITLE7=なごりのゆき
TTITLE8=禁断の想ひ
TTITLE9=まみむめも
EXTD=YEAR: 2003
EXTT0=
EXTT1=
EXTT2=
EXTT3=
EXTT4=
EXTT5=
EXTT6=
EXTT7=
EXTT8=
EXTT9=
PLAYORDER=
